HIERARCHY
ROOT Hips
{
  OFFSET 13.6774 106.653 -34.4427
  CHANNELS 6 Xposition Yposition Zposition Zrotation Xrotation Yrotation
  JOINT ToSpine
  {
    OFFSET -2.69724 7.43032 -0.144315
    CHANNELS 3 Zrotation Xrotation Yrotation
    JOINT Spine
    {
      OFFSET -0.0310711 10.7595 1.96963
      CHANNELS 3 Zrotation Xrotation Yrotation
      JOINT Spine1
      {
        OFFSET 19.9056 3.91189 0.764692
        CHANNELS 3 Zrotation Xrotation Yrotation
        JOINT Neck
        {
          OFFSET 25.9749 7.03908 -0.130764
          CHANNELS 3 Zrotation Xrotation Yrotation
          JOINT Head
          {
            OFFSET 9.52751 0.295786 -0.907742
            CHANNELS 3 Zrotation Xrotation Yrotation
            End Site
            {
              OFFSET 16.4037 0.713936 2.7358
            }
          }
        }
        JOINT LeftShoulder
        {
          OFFSET 17.7449 4.33886 11.7777
          CHANNELS 3 Zrotation Xrotation Yrotation
          JOINT LeftArm
          {
            OFFSET 0.911315 1.27913 9.80584
            CHANNELS 3 Zrotation Xrotation Yrotation
            JOINT LeftForeArm
            {
              OFFSET 28.6126 1.18197 -3.53199
              CHANNELS 3 Zrotation Xrotation Yrotation
              JOINT LeftHand
              {
                OFFSET 27.5088 0.0218783 0.327423
                CHANNELS 3 Zrotation Xrotation Yrotation
                End Site
                {
                  OFFSET 18.6038 -0.000155887 0.382096
                }
              }
            }
          }
        }
        JOINT RightShoulder
        {
          OFFSET 17.1009 2.89543 -12.2328
          CHANNELS 3 Zrotation Xrotation Yrotation
          JOINT RightArm
          {
            OFFSET 1.4228 0.178766 -10.211
            CHANNELS 3 Zrotation Xrotation Yrotation
            JOINT RightForeArm
            {
              OFFSET 28.733 1.87905 2.64907
              CHANNELS 3 Zrotation Xrotation Yrotation
              JOINT RightHand
              {
                OFFSET 27.4588 0.290562 -0.101845
                CHANNELS 3 Zrotation Xrotation Yrotation
                End Site
                {
                  OFFSET 17.8396 -0.255518 -0.000602873
                }
              }
            }
          }
        }
      }
    }
  }
  JOINT LeftUpLeg
  {
    OFFSET -5.61296 -2.22332 -10.2353
    CHANNELS 3 Zrotation Xrotation Yrotation
    JOINT LeftLeg
    {
      OFFSET 2.56703 -44.7417 -7.93097
      CHANNELS 3 Zrotation Xrotation Yrotation
      JOINT LeftFoot
      {
        OFFSET 3.16933 -46.5642 -3.96578
        CHANNELS 3 Zrotation Xrotation Yrotation
        JOINT LeftToeBase
        {
          OFFSET 0.346054 -6.02161 12.8035
          CHANNELS 3 Zrotation Xrotation Yrotation
          End Site
          {
            OFFSET 0.134235 -1.35082 5.13018
          }
        }
      }
    }
  }
  JOINT RightUpLeg
  {
    OFFSET -5.7928 -1.72406 10.6446
    CHANNELS 3 Zrotation Xrotation Yrotation
    JOINT RightLeg
    {
      OFFSET -2.57161 -44.7178 -7.85259
      CHANNELS 3 Zrotation Xrotation Yrotation
      JOINT RightFoot
      {
        OFFSET -3.10148 -46.5936 -4.03391
        CHANNELS 3 Zrotation Xrotation Yrotation
        JOINT RightToeBase
        {
          OFFSET -0.0828122 -6.13587 12.8035
          CHANNELS 3 Zrotation Xrotation Yrotation
          End Site
          {
            OFFSET -0.131328 -1.35082 5.13018
          }
        }
      }
    }
  }
}
MOTION
Frames: 7
Frame Time: 0.03333333333333333
0.0000 93.1000 0.0000 76.7091 14.1685 2.0297 -71.0622 -0.2349 88.4511 81.6065 67.8087 4.7527 1.0097 18.0496 3.1398 -140.0010 32.1148 156.0522 -148.1443 73.0287 175.1658 0.8177 -13.0820 -8.4238 -81.1514 15.7485 -157.8817 -3.1249 0.0385 -94.4389 0.1207 -0.0960 0.1412 -1.2498 9.4051 15.9940 -48.4272 -2.2838 135.3044 -5.0220 -1.1252 98.1618 -0.1206 0.1940 -0.1143 -57.5126 15.8513 96.4838 -1.0050 33.6174 4.9609 -2.8832 -6.3663 -0.9425 1.0368 -7.5569 9.4253 -42.8884 -11.1956 83.5884 1.8868 48.0560 -0.2153 -7.1416 -12.0828 0.9726 2.3339 -13.2133 -13.3964 
0.0000 93.1000 0.0000 76.3882 14.1337 1.6293 -71.0047 -0.2641 88.3148 81.3941 67.8704 4.8419 0.9750 18.2655 3.0071 -141.2846 32.4127 155.0323 -148.6509 73.3098 173.6311 0.9446 -13.0385 -8.0642 -81.1640 15.9407 -158.9488 -3.1179 0.0967 -94.3466 0.0539 -0.1124 0.3543 -1.0926 9.3487 15.8643 -47.8213 -2.6296 136.1422 -4.2502 -1.1436 98.9203 -0.0163 0.1260 0.1989 -58.0463 15.0754 95.8390 -1.2075 32.4786 6.2346 -2.4854 -6.0800 -1.0864 0.8442 -6.0908 9.6052 -42.6306 -11.1873 83.6269 1.8346 48.8718 0.0680 -6.7500 -13.1005 0.7745 2.2727 -11.8965 -14.9320 
0.0000 93.1000 0.0000 75.4004 14.0026 1.7919 -71.0964 -0.1855 88.3369 80.5346 68.5456 4.8602 0.6927 17.9490 2.9138 -139.7575 32.7948 156.1866 -148.1835 74.0468 173.6920 0.8326 -13.1133 -8.0493 -80.9852 15.8283 -159.2566 -3.2016 0.2200 -94.5032 0.2234 -0.0903 0.2862 -0.8560 9.1606 15.5459 -46.9781 -3.2275 136.1597 -3.4710 -0.9451 98.0277 -0.1071 0.2956 0.3016 -58.2158 15.2765 95.0899 -0.9255 32.4414 7.0059 -3.0144 -5.9588 -1.0491 -0.1078 -5.7673 8.6783 -42.0902 -11.0653 83.5557 1.9770 49.9858 -0.9627 -6.1020 -13.9997 0.7831 1.5991 -12.2248 -14.4120 
0.0000 93.1000 0.0000 76.4083 14.0692 1.4981 -71.2408 -0.1524 88.2258 81.3999 69.0212 4.4825 0.7375 17.8975 2.9770 -140.2529 32.7749 155.9990 -151.0786 74.2707 175.7659 0.9808 -12.8126 -7.8940 -81.0424 16.5922 -159.1103 -3.0764 0.0718 -94.2276 0.0785 0.1224 -0.0883 -0.8541 9.6494 15.9071 -46.7712 -3.1947 136.4328 -4.4208 -1.0850 97.9660 0.0363 -0.1547 -0.1223 -58.5310 15.3109 94.4280 -1.0539 32.4862 6.9801 -3.1250 -5.9726 -1.0479 0.1085 -5.9802 9.1799 -41.6789 -10.6876 83.8447 3.0189 51.1501 0.3036 -6.6407 -13.8621 1.0512 2.5187 -12.8857 -15.8727 
0.0000 93.1000 0.0000 75.2253 13.8576 0.4770 -71.2440 -0.0596 88.3581 81.4296 69.0096 3.5592 0.7912 17.9188 3.0968 -139.7668 32.8454 157.2869 -151.8898 74.0561 176.2374 0.8767 -12.8459 -8.2757 -80.2489 16.9672 -159.9545 -2.1955 0.1771 -94.0905 0.2669 0.0634 0.1442 -0.4802 9.1699 15.8612 -46.8786 -3.5166 137.1777 -4.5185 -0.7287 97.0310 -0.0136 0.2953 0.1591 -58.3481 15.0606 95.1274 -0.8312 32.7965 5.7207 -3.0816 -5.9990 -1.0984 -0.0440 -6.1402 10.4115 -40.6117 -11.1517 84.6242 2.3225 51.2926 -0.1262 -6.8795 -13.8003 0.9463 2.7587 -12.2068 -14.9829 
0.0000 93.1000 0.0000 75.4783 13.9537 0.4003 -71.1998 0.1298 88.3608 83.3899 68.8785 2.4544 0.1654 17.9313 2.9090 -140.0201 32.7936 157.2007 -153.0932 74.0897 177.0610 1.0384 -12.8891 -9.1021 -79.0770 16.9039 -160.0180 -1.6649 0.0524 -94.1973 0.1980 0.1746 0.0387 -0.3748 9.6757 14.9621 -47.7030 -4.2054 137.1477 -4.2165 -1.1341 96.9677 -0.0151 0.2874 0.3870 -57.4165 15.1113 95.2606 -1.4976 33.6631 5.2016 -3.8793 -6.4687 -1.1543 0.2316 -5.7885 10.2125 -39.7995 -12.0591 83.9845 3.4344 52.5084 0.1624 -6.1022 -13.9785 1.0609 2.2226 -11.7893 -12.0950 
0.0000 93.1000 0.0000 74.1489 14.6434 -0.0647 -71.1014 0.1928 88.3799 84.3309 68.9290 1.6144 0.1532 17.9667 3.3098 -140.1798 32.9423 157.0733 -153.0691 74.7682 178.1909 1.4337 -12.6022 -9.3466 -77.8885 17.6624 -160.0611 -0.9937 -0.0041 -93.1181 -0.0743 0.4056 -0.4446 -0.4328 9.8634 14.7765 -48.9550 -5.2366 135.4674 -2.1957 -0.7145 97.0763 0.1620 -0.4312 -0.1243 -56.6540 13.9509 95.8437 -2.4569 33.3852 2.4952 -4.4902 -7.2854 -1.2902 1.3823 -6.9615 11.0560 -39.0854 -14.0767 83.3496 3.2095 51.7540 -1.7694 -5.3029 -13.7384 1.3347 0.6414 -10.0594 -9.2088 
